<svg width="46" height="45" viewBox="0 0 46 45" fill="none" xmlns="http://www.w3.org/2000/svg">
<path d="M40.819 38.0493L32.3084 29.5388C34.4515 26.8238 35.7434 23.4056 35.7434 19.6875C35.7434 10.8994 28.594 3.75 19.8059 3.75C11.0178 3.75 3.86841 10.8994 3.86841 19.6875C3.86841 28.4756 11.0178 35.625 19.8059 35.625C23.5259 35.625 26.9422 34.3349 29.6572 32.1899L38.1678 40.7007C38.5334 41.0663 39.0134 41.25 39.4934 41.25C39.9734 41.25 40.4534 41.0663 40.819 40.7007C41.5522 39.9676 41.5522 38.7824 40.819 38.0493ZM7.61841 19.6875C7.61841 12.9675 13.0859 7.5 19.8059 7.5C26.5259 7.5 31.9934 12.9675 31.9934 19.6875C31.9934 26.4075 26.5259 31.875 19.8059 31.875C13.0859 31.875 7.61841 26.4075 7.61841 19.6875Z" fill="white"/>
</svg>
