<svg width="46" height="45" viewBox="0 0 46 45" fill="none" xmlns="http://www.w3.org/2000/svg">
<path d="M20.6812 28.1266V33.7516C20.6812 34.7884 19.8412 35.6266 18.8062 35.6266C17.7712 35.6266 16.9312 34.7884 16.9312 33.7516V28.1266C16.9312 27.0897 17.7712 26.2516 18.8062 26.2516C19.8412 26.2516 20.6812 27.0897 20.6812 28.1266ZM26.3062 26.2516C25.2712 26.2516 24.4312 27.0897 24.4312 28.1266V33.7516C24.4312 34.7884 25.2712 35.6266 26.3062 35.6266C27.3412 35.6266 28.1812 34.7884 28.1812 33.7516V28.1266C28.1812 27.0897 27.3412 26.2516 26.3062 26.2516ZM38.3605 23.6659L36.9524 34.7003C36.4762 38.4334 33.2774 41.2497 29.5124 41.2497H15.6412C11.8893 41.2497 8.69242 38.4448 8.20492 34.7248L6.75552 23.6677C5.00802 22.7115 3.80615 20.8797 3.80615 18.7516C3.80615 15.6503 6.3299 13.1266 9.43115 13.1266H12.1199L17.1993 4.66092C17.7318 3.77217 18.8812 3.48526 19.7718 4.01776C20.6606 4.55026 20.9474 5.70164 20.4149 6.59039L16.4943 13.1247H28.6217L24.7012 6.59039C24.1687 5.70164 24.4555 4.55026 25.3443 4.01776C26.233 3.48526 27.3843 3.77217 27.9168 4.66092L32.9961 13.1266H35.6812C38.7824 13.1266 41.3062 15.6503 41.3062 18.7516C41.3062 20.8778 40.1061 22.7096 38.3605 23.6659ZM7.55615 18.7516C7.55615 19.7866 8.39803 20.6266 9.43115 20.6266H35.6812C36.7143 20.6266 37.5562 19.7866 37.5562 18.7516C37.5562 17.7166 36.7143 16.8766 35.6812 16.8766H9.43115C8.39803 16.8766 7.55615 17.7166 7.55615 18.7516ZM34.4887 24.3766H10.6312L11.9249 34.2391C12.1668 36.0991 13.7662 37.5016 15.6412 37.5016H29.5124C31.3949 37.5016 32.9943 36.0935 33.2305 34.2279L34.4887 24.3766Z" fill="white"/>
</svg>
