<svg width="45" height="49" viewBox="0 0 45 49" fill="none" xmlns="http://www.w3.org/2000/svg">
<g filter="url(#filter0_d_48_223)">
<path d="M22.4981 23.9058C27.9262 23.9058 32.3418 19.4902 32.3418 14.062C32.3418 8.63391 27.9262 4.21828 22.4981 4.21828C17.0699 4.21828 12.6543 8.63391 12.6543 14.062C12.6543 19.4902 17.0699 23.9058 22.4981 23.9058ZM22.4981 7.03078C26.3756 7.03078 29.5293 10.1845 29.5293 14.062C29.5293 17.9395 26.3756 21.0933 22.4981 21.0933C18.6206 21.0933 15.4668 17.9395 15.4668 14.062C15.4668 10.1845 18.6206 7.03078 22.4981 7.03078ZM37.0293 33.6877V35.5833C37.0293 37.3365 36.3899 39.0164 35.2274 40.312C34.9499 40.6233 34.5655 40.7808 34.1793 40.7808C33.8455 40.7808 33.5099 40.6626 33.2418 40.4226C32.6624 39.9051 32.6155 39.0164 33.133 38.437C33.8324 37.6552 34.2186 36.6427 34.2186 35.5852V33.6896C34.2186 30.8508 32.3361 28.3945 29.638 27.7176C29.1636 27.5976 28.6537 27.6633 28.2393 27.8977C24.675 29.8815 20.3136 29.8738 16.7718 27.9032C16.348 27.6613 15.8381 27.592 15.3637 27.7157C12.6656 28.3945 10.7811 30.8508 10.7811 33.6896V35.5852C10.7811 36.6445 11.1675 37.657 11.8668 38.437C12.3843 39.0164 12.3355 39.9051 11.758 40.4226C11.1768 40.942 10.2881 40.8914 9.77245 40.3139C8.60995 39.0164 7.97058 37.3364 7.97058 35.5852V33.6896C7.97058 29.5608 10.7286 25.9833 14.6774 24.9895C15.8455 24.6933 17.1149 24.8621 18.1536 25.4546C20.8349 26.9471 24.1575 26.9527 26.8612 25.4489C27.8869 24.8639 29.1562 24.697 30.3281 24.9914C34.2712 25.9795 37.0293 29.5571 37.0293 33.6877Z" fill="white"/>
</g>
<defs>
<filter id="filter0_d_48_223" x="-4" y="0" width="53" height="53" filterUnits="userSpaceOnUse" color-interpolation-filters="sRGB">
<feFlood flood-opacity="0" result="BackgroundImageFix"/>
<feColorMatrix in="SourceAlpha" type="matrix" values="0 0 0 0 0 0 0 0 0 0 0 0 0 0 0 0 0 0 127 0" result="hardAlpha"/>
<feOffset dy="4"/>
<feGaussianBlur stdDeviation="2"/>
<feComposite in2="hardAlpha" operator="out"/>
<feColorMatrix type="matrix" values="0 0 0 0 0 0 0 0 0 0 0 0 0 0 0 0 0 0 0.25 0"/>
<feBlend mode="normal" in2="BackgroundImageFix" result="effect1_dropShadow_48_223"/>
<feBlend mode="normal" in="SourceGraphic" in2="effect1_dropShadow_48_223" result="shape"/>
</filter>
</defs>
</svg>
